<?xml version="1.0" encoding="utf-8"?>
<!-- Generator: Adobe Illustrator 22.1.0, SVG Export Plug-In . SVG Version: 6.00 Build 0)  -->
<svg version="1.1" id="Layer_1" xmlns="http://www.w3.org/2000/svg" xmlns:xlink="http://www.w3.org/1999/xlink" x="0px" y="0px"
	 viewBox="0 0 1200 1200" style="enable-background:new 0 0 1200 1200;" xml:space="preserve">
<style type="text/css">
	.st0{fill:none;}
	.st1{fill:#FFCB05;}
	.st2{fill:#8357db;}
	.st3{fill:#8AC63F;}
	.st4{fill:#252525;}
</style>
<g>
	<g>
		<g>
			<path class="st0" d="M288.1,498.9c0,0-133.1,30.5-93.2,72.1c39.9,41.6,301.2,29.9,389.1,23.3s272.2-35.9,294-44.3
				c70.3-27.2-34.7-63.7-74.6-67.1"/>
		</g>
		<g>
			<path class="st1" d="M288.1,498.9c0,0-133.1,30.5-93.2,72.1c39.9,41.6,301.2,29.9,389.1,23.3s272.2-35.9,294-44.3
				c70.3-27.2-34.7-63.7-74.6-67.1"/>
		</g>
		<g>
			<path class="st0" d="M803.5,371.8"/>
		</g>
		<g>
			<path class="st2" d="M213,581.8c72,28.4,291.9,18.4,371.1,12.4c79.2-6,236.7-30.3,283-41.2c5.1-1.2-2.2,0.8,0,0
				c0,0-30-11.1-52.6-29.1c-22.3-17.8-22.2-58.1,24.3-52.4c46.5,5.6,75.3-25.4,93-40.7s16.3-95.6-6.5-124.1
				c-27.6-34.5-112.6-79.3-188.1-5.6l-5.4,5.8c8.3-11,11.6-24.7-2.8-38.7c-33.2-32.3-80.1,0-80.1,0l0.6-3.4c0.1-0.5,0.1-0.9,0.2-1.4
				c2.1-17.4-2.5-37.6-25.9-54c-52.1-36.3-107.7,1.4-107.7,1.4l0.2-6.6c0.1-15.6-3.2-30.8-10.8-43.9c-42.1-73-126.2-87.6-168.7-98.5
				c-44.3-11.3-188.5-29-235,131.5s112,192,112,192c-6.6-5.6-44.4-5.6-78.8,13c-34.4,18.5-10.5,73.3,18.3,79.7s99.3-10.4,134.7,21
				S213,581.8,213,581.8"/>
		</g>
		<g>
			<path class="st0" d="M288.1,387.8"/>
		</g>
		<g>
			<path class="st3" d="M194.9,571c39.9,41.6,301.2,29.9,389.1,23.3s272.2-35.9,294-44.3l23.5-19.4c6.5,168.7-59,341.2-210.3,383.4
				C596,940.5,430.7,924,332.3,843c-103-84.8-143.6-281.2-143.6-281.2L194.9,571z"/>
		</g>
		<g>
			<path class="st0" d="M601.1,731.4c22.2-37.1,70.2-52.2,118.2-31.7"/>
		</g>
		<g>
			<path class="st0" d="M635.9,850.7c0,0,26.7,41,72.1-7.8"/>
		</g>
		<g>
			<path class="st0" d="M369.4,399.8c-64.6-7.8-11.6-93,21.1-39.9"/>
		</g>
		<g>
			<path class="st0" d="M664,425.5c30-39,67.2,25.2,22,25.2"/>
		</g>
	</g>
	<path class="st4" d="M1180.4,665.4c-5.4-21.3-18-37.6-37.3-48.4c-36.5-20.4-90.3-16.7-128.6-10.1c-0.7-5.9-6-10.2-12-9.7
		c-6.1,0.5-10.6,5.9-10.1,12l0.2,2c-13.7,3.1-22.7,5.8-24,6.2c-5.9,1.8-9.1,8-7.3,13.9c1.8,5.9,8,9.1,13.9,7.3
		c0.1,0,7.6-2.3,19.4-5.1l8.3,92.5c-4.3-0.4-8.2-0.8-11.6-1.2c-6.1-0.8-11.6,3.5-12.4,9.6c-0.8,6.1,3.5,11.6,9.6,12.4
		c0.6,0.1,6.7,0.8,16.4,1.6l5.9,66.3c0.5,5.8,5.4,10.1,11,10.1c0.3,0,0.7,0,1,0c6.1-0.5,10.6-5.9,10.1-12l-5.6-63
		c6.4,0.3,13.3,0.4,20.6,0.4c4.5,0,9.1-0.1,13.8-0.2c53.8-1.6,90.2-12.7,108.1-33C1181.9,703.4,1185.5,685.5,1180.4,665.4z
		 M1153.2,702.3c-21.4,24.3-83.8,27.2-127.9,25.3l-8.8-98.5c5.7-1,11.8-2,18.2-2.8c42.5-5.4,76.2-1.9,97.6,10
		c14,7.8,22.7,19.1,26.6,34.5C1162.2,683.9,1160.3,694.2,1153.2,702.3z"/>
	<g>
		<g>
			<path class="st4" d="M37.3,993.6c-4.2,0-8.2-2.4-10.1-6.5c-2.6-5.6-0.1-12.2,5.5-14.7c38.9-17.9,79.7-30.2,121.1-36.6
				c8.1-1.3,16.4-2.3,24.4-3.4c32.1-4.1,62.4-8,87.7-23.6c5.2-3.2,12.1-1.6,15.3,3.7c3.2,5.2,1.6,12.1-3.7,15.3
				c-29.4,18-63.5,22.4-96.5,26.7c-7.9,1-16,2.1-23.8,3.3c-39.4,6.1-78.1,17.8-115.2,34.9C40.4,993.3,38.9,993.6,37.3,993.6z"/>
		</g>
		<g>
			<path class="st4" d="M216.6,1119.7c-5,0-9.5-3.3-10.8-8.4c-9.1-35.7-21.6-58.7-34.9-83.1c-13.8-25.4-28.1-51.6-37.4-91.9
				c-1.4-6,2.3-11.9,8.3-13.3c6-1.4,11.9,2.3,13.3,8.3c8.6,37.4,21.6,61.1,35.2,86.3c13.3,24.5,27.1,49.8,36.9,88.2
				c1.5,5.9-2.1,12-8,13.5C218.5,1119.6,217.5,1119.7,216.6,1119.7z"/>
		</g>
	</g>
	<g>
		<path class="st4" d="M340.3,1111.6c-3.2,0-6.4-1.4-8.6-4.1c-16.3-20.1-37.2-37-61.3-49.9c1.8,10.4,3.6,20.7,5.5,31
			c1.1,6-2.9,11.8-8.9,12.9c-6,1.1-11.8-2.9-12.9-8.9c-2.9-15.6-5.6-31.3-8.2-47c-2.8-2.5-4.1-6.3-3.5-10.1c0.2-1.3,0.7-2.5,1.3-3.5
			c-2.5-15.7-4.8-31.4-6.9-47c-0.4-2.8-1.3-9.4,3.2-15.2c3.4-4.3,8-5.9,10.8-6.8c13.3-4.5,28.5-9.7,44.7-10.1
			c15.5-0.3,35.8,4.7,46.5,19.8c5.9,8.4,7.8,18.7,5.3,29.1c-3.2,13.5-13.6,26.5-27.2,33.9c-8.4,4.6-17.6,7.4-26.8,9.3
			c21.6,13.2,40.5,29.6,55.8,48.4c3.9,4.8,3.1,11.8-1.6,15.6C345.3,1110.8,342.8,1111.6,340.3,1111.6z M259,983.7
			c1.9,14,4,28.1,6.2,42.2c15.1-0.8,31.5-2.7,44.2-9.6c8.1-4.4,14.4-12,16.2-19.5c1-4.3,0.4-8.1-1.9-11.3
			c-4.6-6.5-15.7-10.7-27.8-10.4C283.5,975.5,271.1,979.6,259,983.7z M256.2,984.7L256.2,984.7L256.2,984.7z"/>
	</g>
	<g>
		<path class="st4" d="M385.5,1127.2c-5.6,0-10.4-4.2-11-9.8c-6.2-52.9-2.8-105.6,10.1-156.6c1.5-5.9,7.5-9.5,13.5-8
			c5.9,1.5,9.5,7.5,8,13.5c-12.2,48.4-15.5,98.4-9.6,148.6c0.7,6.1-3.6,11.6-9.7,12.3C386.3,1127.2,385.9,1127.2,385.5,1127.2z"/>
	</g>
	<path class="st4" d="M527.7,1018.6c-10.2-10.6-24.5-15.1-37.2-18.4c-5.6-1.5-11.3-2.9-17.2-4c0.6-2,1.2-4,1.9-6
		c1.8-5.9-1.4-12.1-7.3-13.9c-5.9-1.8-12.1,1.4-13.9,7.3c-1.1,3.4-2.1,6.8-3.2,10.3c-8.9,0-17.7,1.2-25.9,4.3
		c-5.7,2.2-8.6,8.6-6.4,14.4c2.2,5.7,8.6,8.6,14.4,6.4c3.6-1.4,7.4-2.2,11.4-2.6c-5.2,19-9.9,38.2-13.9,57.5
		c-4.9-0.9-9.8-2.1-14.7-3.5c-5.9-1.7-12,1.8-13.7,7.7c-1.7,5.9,1.8,12,7.7,13.7c5.4,1.5,10.9,2.8,16.5,3.9
		c-1.9,10.2-3.6,20.4-5.2,30.7c-0.9,6.1,3.2,11.7,9.3,12.7c0.6,0.1,1.1,0.1,1.7,0.1c5.4,0,10.1-3.9,11-9.4
		c1.6-10.4,3.4-20.8,5.3-31.1c4.3,0.3,8.5,0.4,12.8,0.4c2.3,0,4.6,0,6.9-0.1c25.1-0.9,44.2-7.5,56.9-19.4
		c8.7-8.2,13.9-19.7,14.2-31.5C539.2,1036.8,535.2,1026.4,527.7,1018.6z M516.7,1047.2c-0.2,5.9-2.8,11.8-7.2,15.9
		c-8.5,8-23.2,12.7-42.5,13.4c-4.8,0.2-9.7,0.1-14.5-0.1c4.2-19.8,9-39.4,14.5-58.8c6,1,12.1,2.5,17.9,4c9.8,2.6,20.7,5.9,26.9,12.3
		C516,1038.5,516.8,1043.7,516.7,1047.2z"/>
	<path class="st4" d="M693.2,1018.9c-6.5-14.4-21.1-24.8-38.3-27.1c-15.7-2.2-31.4,2.5-44,6.2l-15.7,4.6c-0.2-1.9-0.4-3.7-0.6-5.7
		c-0.6-6.1-6-10.6-12.1-10c-6.1,0.6-10.6,6-10,12.1c0.3,3.4,0.7,6.7,1.2,10l-21.2,6.3c-5.9,1.7-9.2,7.9-7.5,13.8
		c1.7,5.9,7.9,9.2,13.8,7.5l19.4-5.7c4.6,17.5,11.1,32.1,17.5,46.4c1.8,4.1,3.6,8.1,5.3,12.2c-9.7,4-19.6,7.6-29.6,10.9
		c-5.8,1.9-9,8.2-7.1,14c1.5,4.7,5.9,7.7,10.6,7.7c1.1,0,2.3-0.2,3.5-0.6c10.4-3.4,20.6-7.2,30.7-11.3c3.7,11.1,6.6,23.2,8,37.5
		c0.6,5.7,5.4,10,11,10c0.4,0,0.8,0,1.2-0.1c6.1-0.6,10.5-6.1,9.9-12.2c-1.8-17-5.3-31.3-9.7-44.2c10.3-4.8,20.4-10.1,30.3-15.6
		c9.2-5.2,19.7-11.6,27.2-21.1C697.3,1051,699.8,1033.6,693.2,1018.9z M669.3,1050.8c-5,6.3-13.3,11.3-20.7,15.5
		c-8.9,5.1-18,9.8-27.4,14.2c-1.8-4.1-3.6-8.2-5.4-12.2c-6.3-14.1-12.3-27.7-16.5-43.7l17.8-5.3c11.1-3.3,23.7-7,34.7-5.5
		c9.5,1.3,17.7,6.9,21,14.2C676.1,1035,674.7,1043.9,669.3,1050.8z"/>
	<path class="st4" d="M1003.2,1023.3c-3.9-23.1-19.7-44.3-42.2-56.6c-4-2.2-8.2-4.1-12.5-5.7c2.3-1.8,4.5-3.6,6.5-5.6
		c11.6-11.3,17.8-25.6,16.9-39.4c-0.7-11.2-6.2-22.6-15.5-32.2c-3.3-3.4-8.5-8.1-16-10.2c-7.8-2.2-15.4-0.9-21.8,0.7
		c-11.2,2.7-21.9,6.8-31.9,12c-3.1-3.7-8.3-5.2-13-3.2c-5.6,2.4-8.2,8.9-5.8,14.6c0,0.1,0.1,0.2,0.1,0.3
		c-5.6,4.2-10.9,8.8-15.6,13.8c-4.2,4.4-4.1,11.5,0.4,15.7c4.4,4.2,11.5,4.1,15.7-0.4c2.4-2.6,5.1-5,7.8-7.4
		c4.3,12.5,7.7,25.3,10.3,38.2c-0.2,0-0.4,0.1-0.6,0.1c-4.8,1.3-8.2,5.7-8.2,10.7c0,5,3.3,9.4,8.1,10.8c1.5,0.4,2.9,0.7,4.4,0.9
		c2.7,21,3.1,42.2,1.3,63.1c-0.5,6.1,4,11.5,10.1,12c0.3,0,0.6,0,1,0c5.7,0,10.6-4.4,11.1-10.2c1.9-22.2,1.4-44.7-1.3-67
		c1.6-0.5,3.2-1,4.6-1.4c11.7,0.7,23.2,3.8,33.2,9.2c16.6,9.1,28.2,24.3,31,40.8c0.9,5.4,5.6,9.3,10.9,9.3c0.6,0,1.2-0.1,1.9-0.2
		C1000.2,1035.1,1004.2,1029.4,1003.2,1023.3z M913.6,954.7c-1.6,0-3.2,0-4.9,0.1c-3.2-16.2-7.7-32.3-13.3-47.9
		c8.8-4.8,18.5-8.5,28.5-11c3.4-0.8,7.7-1.7,10.5-0.9c1.8,0.5,3.7,1.9,6.1,4.3c5.6,5.8,8.9,12.2,9.3,18.2c0.5,7.2-3.2,15.3-10.2,22
		C933.4,945.5,924.7,950.6,913.6,954.7z"/>
	<path class="st4" d="M867,1022.4c-3.2-5.2-10.1-6.8-15.3-3.6c-28.1,17.3-54.6,37.6-78.8,60.3c-3.1-4.2-5.4-9.9-7.8-15.7
		c-1-2.5-2.1-5.1-3.2-7.6c-2.3-5.2-5-10.1-7.9-14.9c5.7-3.3,11.6-6.3,17.6-9c1-0.4,2-0.9,3-1.3c9.5-4.1,20.2-8.8,27.7-18.7
		c3.7-4.9,2.8-11.8-2.1-15.6c-4.9-3.7-11.8-2.8-15.6,2.1c-4,5.3-11.3,8.5-18.9,11.8c-1.1,0.5-2.1,0.9-3.2,1.4
		c-7.2,3.2-14.1,6.8-20.9,10.8c-0.7-1-1.4-1.9-2-2.9L721.5,994c34.3-15.4,68.6-32.9,95.2-55.8c4.7-4,5.2-11,1.2-15.7
		c-4-4.7-11-5.2-15.7-1.2c-27.6,23.7-65.4,41.8-102.2,57.8c-3.1,1.3-5.4,4-6.3,7.2s-0.3,6.7,1.7,9.4l26.1,36.6
		c0.8,1.1,1.6,2.2,2.4,3.4c-1.6,3.5-1.3,7.6,1,10.9c2.2,3.1,5.6,4.8,9.1,4.8c0.1,0,0.3,0,0.4,0c2.7,4.4,5.1,8.8,7.2,13.3
		c1,2.2,1.9,4.5,2.9,6.9c4,9.8,8.5,21,18.2,28.7c1.1,0.9,4.5,3.6,9.3,3.8c0.2,0,0.5,0,0.7,0c5.9,0,9.7-3.7,11.2-5.1
		c24.3-23.3,51-44,79.4-61.5C868.6,1034.5,870.3,1027.6,867,1022.4z"/>
	<g>
		<path class="st4" d="M1069.9,1045.8c-13.1,0-24-2-33.2-6c-9.6-4.2-16.9-10.5-21.6-15c-2.9-2.7-7.7-8.4-7.3-15.6
			c0.2-4.3,2.3-8.2,5.7-10.8c4.8-3.7,11.6-2.8,15.3,2c2.1,2.7,2.7,6.1,2,9.2c5.3,4.9,9.9,8.1,14.7,10.2c7.2,3.1,16.5,4.5,28.4,4.1
			c16.3-0.6,29.5-4.2,38-10.5c7-5.2,11.9-14.7,7.8-21.5c-4.5-7.5-18.1-12.2-27.1-15.3l-62.6-21.7c-7.5-2.6-18.8-6.5-24.8-15.9
			c-4.5-6.9-4.6-14.7-4.6-19.3c-0.1-6.3-0.2-16.8,5.8-26c5.3-8,14.8-14,26.6-16.8c9.8-2.3,19.7-2.2,28.1-1.9
			c12.7,0.4,27.5,1.5,41.2,6.4c13.1,4.6,21.1,12.1,23.3,21.6c1.3,5.9-2.4,11.7-8.2,13.1c-5.9,1.3-11.7-2.4-13.1-8.2
			c-0.2-0.7-2.7-3.5-9.3-5.8c-10.9-3.9-23.7-4.8-34.7-5.1c-7.1-0.2-15.2-0.3-22.4,1.3c-6.2,1.5-11.2,4.3-13.4,7.6
			c-2.2,3.3-2.3,8.3-2.2,13.7c0,3.2,0.2,6.2,1.1,7.7c2,3,9.3,5.6,13.6,7.1l62.6,21.7c12,4.2,30.1,10.4,38.7,24.7
			c9.6,15.9,3.8,37.5-13.4,50.3c-12.3,9.1-29.2,14.1-50.3,14.8C1073,1045.8,1071.4,1045.8,1069.9,1045.8z"/>
	</g>
</g>
<g>
	<path class="st4" d="M926.2,601.9l-15.1,0.9c2-23.4,2.6-47.3,1.7-71.4c0.1-1.7,0.1-3.5-0.2-5.3c-2-14.2-17.1-26.8-46-38.4
		c-4-1.6-8.3-3.2-12.6-4.6c37.7-1.6,63.4-24.6,79.6-39.1c2-1.8,3.8-3.4,5.5-4.9c5.3-4.6,17.6-20.3,15.8-65.9
		c-1.2-31.2-9-58.7-20.8-73.5c-19.4-24.3-61.6-50.2-108.3-49.6c-30.9,0.4-56.7,11.8-77.5,27.1c-2.1-6-5.9-11.7-11.4-17.1
		c-16.5-16-38.3-21.2-63-14.9c-4.6,1.2-9,2.7-12.8,4.2c-1.5-15.8-9-34.1-30.8-49.3c-24-16.7-52.4-21.8-82.3-14.6
		c-8,1.9-15.2,4.5-21,7c-1.3-13.8-5.2-26.8-11.7-38C474.2,83.7,397.1,65,351,53.8c-4.1-1-7.9-1.9-11.5-2.8
		c-14.9-3.8-68-15-122.6,1.4c-28.2,8.5-52.7,23-72.9,43.1c-23.8,23.8-41.6,55.6-52.9,94.6c-14.9,51.4-11.3,95.7,10.7,131.8
		c15.6,25.6,37.8,42.8,58.3,54.2c-10.2,2.9-20.5,6.9-30.3,12.2c-17,9.2-25.1,26.3-22.2,46.9c3.5,25.3,22.6,48.7,43.4,53.4
		c10.5,2.4,24.5,2,40.6,1.6c21.6-0.5,46.9-1.1,67.2,5.1c-6.5,2-13.7,4.5-21.1,7.2c-35.5,13.5-55.2,28-60.1,44.4
		c-1.4,4.7-2,10.9,0.5,17.9c1.6,7.6,11.9,53.6,33.5,109.5c31.2,81,69.5,140.6,113.7,177c59.4,48.9,133.9,69.5,185.9,78.2
		c28.2,4.7,56.6,7,83.9,7c36.1,0,70.3-4.1,99.3-12.2c56.6-15.8,104.6-50.1,141.3-100.5c26.5-2,50.3-15.9,69-40.4
		c32.7-42.8,45.7-112.5,32.4-173.5C936,605.1,931.4,601.6,926.2,601.9z M859.2,508.7c25.5,10.4,31.2,18.8,31.4,20.5c0,0,0,0.1,0,0.1
		c-0.2,0.4-2.3,4.7-16.5,10.2c-1.3,0.5-3.4,1.1-6.1,1.8c-7.8-3.2-29.6-12.7-46.5-26.2c-6.5-5.2-10.5-13.4-10.3-20.2
		C825.5,497.4,844,502.6,859.2,508.7z M191,468.1c-14.1,0.3-27.3,0.7-35.2-1.1c-11.8-2.6-24-18.9-26.2-34.8
		c-1.6-11.4,2.1-19.6,10.8-24.4c23.6-12.8,47.5-15.4,59.7-14.9c6.6,2,10.9,2.9,11.6,3c5,1,10-1.5,12.2-6.1c2.2-4.6,1-10-2.8-13.3
		c-3.3-2.8-9-4.7-16.2-5.5c-19.9-6.3-61.3-23.3-84.1-60.9c-18.5-30.6-21.3-68.9-8.2-114c18.8-64.9,56.1-106.2,110.9-122.6
		c49.2-14.7,97.2-4.6,110.7-1.2c3.6,0.9,7.6,1.9,11.7,2.9c22.7,5.5,50.9,12.3,78.6,26c32.3,15.9,55.7,36.9,71.5,64.4
		c7.1,12.2,10.1,27.5,9.1,43.7c0,0.3,0,0.6-0.1,0.8c-0.9,14.3-4.9,29.3-11.9,43.8c-13.3,27.6-34.6,46.7-55.5,49.9
		c-6.1,0.9-10.2,6.6-9.3,12.6s6.6,10.2,12.6,9.3c28.5-4.3,55.5-27.6,72.2-62.2c7.3-15.2,11.8-31,13.5-46.3c5.3-2.9,15-7.5,27.1-10.3
		c23.6-5.5,45.1-1.6,63.8,11.4c16.5,11.5,23.4,25.7,21.3,43.6c-0.2,1.3-0.4,2.6-0.6,3.9c0,0.1,0,0.2-0.1,0.3
		c-3.1,15.8-12.1,28.3-12.2,28.4c-3.6,4.9-2.6,11.9,2.3,15.5c2,1.5,4.3,2.2,6.6,2.2c3.4,0,6.8-1.6,8.9-4.5
		c0.5-0.7,10.3-14.1,15-32.7c4.3-2.4,12-6.3,21.1-8.5c16.8-4.1,30.8-1,41.5,9.5c7.8,7.6,8.6,14,2.7,22.5c-6,6.4-11.4,12.8-16.1,19
		c-3.7,4.9-2.7,11.9,2.1,15.6c4.9,3.7,11.9,2.7,15.6-2.1c4.1-5.5,8.4-10.5,12.7-15.2c0.9-0.6,1.7-1.4,2.4-2.3c0.3-0.3,0.5-0.7,0.7-1
		c25.3-26.3,53.7-39.7,84.5-40.1c0.5,0,0.9,0,1.3,0c38.7,0,73.4,21.3,89.3,41.2c8.7,10.9,15,34.7,16,60.5c1.2,30.2-5,45.5-8.1,48.3
		c-1.8,1.6-3.8,3.3-5.8,5.1c-17.6,15.8-41.7,37.4-78.6,32.9c-34.1-4.1-45.3,13.4-48.5,21.1c-7,16.6-0.3,38.1,15.9,51
		c7.9,6.3,16.5,11.7,24.6,16.2c-64.1,11.8-183,29.4-248.9,34.4c-50.3,3.8-135.9,7.8-211.5,6.4c-63.8-1.1-103.8-5.7-128.9-10.9
		c4.9-2.8,10.2-5.9,15.5-9.4c29.7-19.1,45.3-36.1,47.6-52.2c1-6.9,0-17-10.1-26.2c-0.1-0.1-0.1-0.1-0.2-0.2c0,0-0.1-0.1-0.1-0.1
		C268.1,466.3,225.3,467.3,191,468.1z M198.8,553.5c1-3.2,7.2-15,46.5-29.9c15.2-5.8,30.2-10,38.5-12.2c0.3,1.1,0.2,1.9,0.1,2.5
		c-0.5,3.2-4.6,15.5-37.4,36.6c-13.6,8.7-27.1,15.7-33.8,19.1c-5.2-2.4-8.1-4.7-9.7-6.3C197.6,557.7,198.5,554.7,198.8,553.5z
		 M781.4,851.7c-27,24.5-58.3,41.8-93.1,51.5c-95.4,26.6-255.9,7.9-349-68.8c-51.3-42.2-86.5-114.4-107-167.5
		c-11.2-29.1-19.4-55.8-24.8-75.3c12.5,5.1,29.2,9.2,50.9,12.4c29.2,4.3,67.1,6.9,112.7,7.7c10.5,0.2,21.1,0.3,31.9,0.3
		c67.6,0,137.9-3.4,181.7-6.7c76.4-5.8,233.4-29.7,283.8-41.3c0.6-0.1,1.3-0.2,1.9-0.4c5.3-1.3,9.2-2.4,11.5-3.3
		c3.2-1.2,6.1-2.5,8.8-3.9c-0.1,16.1-0.9,32.1-2.3,47.8l-175,10.5c-3,0.2-5.7,1.6-7.6,3.9c-1.9,2.3-2.7,5.3-2.2,8.2
		c1.1,7.1,2,15.6,3,25.5c1,9.8,2.2,20.8,3.7,32.2c-21.3-6.6-42.9-7.1-63-1.4c-15.7,4.4-29.8,12.6-41.1,23.7
		c-18.3-52.3-69.5-86.2-129.8-83.1c-39.1,2-70,15.9-91.8,41.2c-18.5,21.5-29.2,50.3-31.1,83.3c-1.8,33.1,13.1,62,43.3,83.7
		c24,17.3,56.1,28.6,88,31c2.4,0.2,4.7,0.3,7.1,0.3c30.7,0,61.7-14.7,86.2-41c24.5-26.4,37-59,34.2-88.2
		c20.8-31.1,62.2-41.1,102.1-24.2c3.6,18.2,8.7,36.6,16.6,53c16.7,35.1,42.6,55.4,77.2,60.4C800,833.5,791,843.1,781.4,851.7z"/>
	<g>
		<path class="st4" d="M665.4,878c-1.3,0-2.6-0.1-3.9-0.2c-22.3-1.9-34.5-20.2-35-21l18.6-12.1l-0.1-0.1c0.1,0.1,7,10.2,18.6,11.1
			c10.6,0.8,23-6.2,36.2-20.3c4.2-4.5,11.2-4.7,15.7-0.6c4.5,4.2,4.7,11.2,0.6,15.7C699.1,868.8,682.1,878,665.4,878z"/>
	</g>
	<g>
		<path class="st4" d="M369.5,410.9c-0.4,0-0.9,0-1.3-0.1c-23.2-2.8-38.2-15.5-40.1-33.9c-1.9-18.3,10.4-37.9,27.4-43.6
			c16.4-5.6,33.1,2.2,44.6,20.8c3.2,5.2,1.6,12.1-3.6,15.3c-5.2,3.2-12.1,1.6-15.3-3.6c-4.1-6.7-10.7-14.1-18.5-11.5
			c-7.4,2.5-13.3,12.2-12.5,20.3c1,9.8,11.8,13.1,20.7,14.2c6.1,0.7,10.4,6.3,9.7,12.4C379.8,406.8,375,410.9,369.5,410.9z"/>
	</g>
	<g>
		<path class="st4" d="M686,461.8c-6.1,0-11.1-5-11.1-11.1s5-11.1,11.1-11.1c4.2,0,9.3-0.9,9.8-3.3c0.7-3.3-2.5-9.2-7.2-11.5
			c-6.2-2.9-12,2.4-15.8,7.4c-3.7,4.9-10.7,5.8-15.6,2c-4.9-3.7-5.8-10.7-2-15.6c17.8-23.2,37.3-16.6,42.8-14
			c14,6.5,22.6,22.5,19.5,36.4C714.7,454.1,702.9,461.8,686,461.8z"/>
	</g>
</g>
<g>
	<path class="st4" d="M115.1,860c-79.5,0-94.6-26.9-98.1-31.5c-4.5-6,3-22.5,21.4-9.9c0.2,0.1,12.2,17.8,76.7,17.8
		c36.2,0,70.3-26.9,70.3-47.8c0-6.9-4.1-12.5-12.6-17.2c-8.5-4.7-25.5-10.3-57.8-10.3c-63.4,0-85.1-21.3-92.2-39.1
		c-7.9-19.8-0.2-43.9,19.9-62.9c13.4-12.6,31-21.7,49.5-25.5c21.2-4.4,42.9-1.8,62.6,7.4c5.9,2.8,8.5,9.8,5.7,15.7
		c-2.8,5.9-9.8,8.5-15.7,5.7C112,647,78,658.3,59,676.3c-13,12.2-18.4,26.4-14.2,37c6.1,15.4,31.7,24.3,70.3,24.3
		c29.9,0,53.2,4.5,69.2,13.3c16,8.8,24.7,22.2,24.7,37.8C209,824.7,162.5,860,115.1,860z"/>
</g>
</svg>
